<?xml version="1.0" standalone="no"?><!DOCTYPE svg PUBLIC "-//W3C//DTD SVG 1.1//EN" "http://www.w3.org/Graphics/SVG/1.1/DTD/svg11.dtd"><svg t="1604475624655" class="icon" viewBox="0 0 1024 1024" version="1.1" xmlns="http://www.w3.org/2000/svg" p-id="5244" xmlns:xlink="http://www.w3.org/1999/xlink" width="32" height="32"><defs><style type="text/css"></style></defs><path d="M773.48 959.09c-7.39 0-14.8-1.78-21.64-5.37L513 828.14 274.19 953.72c-15.84 8.28-34.62 6.9-48.98-3.57-14.41-10.5-21.48-27.92-18.45-45.47l45.59-265.91L59.14 450.44C46.38 438 41.87 419.75 47.38 402.8c5.5-16.95 19.89-29.08 37.53-31.63l266.99-38.8L471.31 90.42c7.89-15.98 23.87-25.91 41.68-25.91 17.82 0 33.8 9.93 41.68 25.92l119.41 241.94 266.99 38.8c17.64 2.55 32.04 14.68 37.55 31.64 5.5 16.96 0.98 35.22-11.81 47.65L773.66 638.77l45.6 265.93c3 17.57-4.08 34.97-18.48 45.45-8.15 5.92-17.69 8.94-27.3 8.94zM513.01 757.18c7.4 0 14.78 1.75 21.51 5.26l210.11 110.49-40.1-233.86c-2.57-15.07 2.4-30.45 13.34-41.12L887.78 432.3l-234.79-34.12a46.44 46.44 0 0 1-35.02-25.49L513 159.99 408 372.76a46.536 46.536 0 0 1-34.99 25.42L138.2 432.3l169.9 165.62c10.95 10.65 15.95 26.03 13.37 41.12l-40.11 233.89 210.01-110.44c6.78-3.56 14.22-5.31 21.64-5.31zM679.1 342.51l0.02 0.08c0.01-0.03-0.02-0.05-0.02-0.08zM493.55 120.58c0.01 0.03 0.03 0.07 0.04 0.09l-0.04-0.09z" p-id="5245" fill="#d81e06"></path><path d="M432.09 638.06c-10.82 0-21.46-5.13-28.07-14.69l-82.38-119.16c-10.71-15.48-6.83-36.71 8.65-47.42 15.49-10.7 36.74-6.83 47.42 8.65l82.38 119.14c10.71 15.49 6.83 36.72-8.65 47.42a33.774 33.774 0 0 1-19.35 6.06z" fill="#d81e06" p-id="5246"></path></svg>