<?xml version="1.0" standalone="no"?><!DOCTYPE svg PUBLIC "-//W3C//DTD SVG 1.1//EN" "http://www.w3.org/Graphics/SVG/1.1/DTD/svg11.dtd"><svg t="1602145652340" class="icon" viewBox="0 0 1024 1024" version="1.1" xmlns="http://www.w3.org/2000/svg" p-id="967" xmlns:xlink="http://www.w3.org/1999/xlink" width="32" height="32"><defs><style type="text/css"></style></defs><path d="M513 97.5c-229.2 0-415 185.8-415 415s185.8 415 415 415 415-185.8 415-415-185.8-415-415-415zM385.1 288.1c0-70.6 57.3-127.9 127.9-127.9 70.6 0 127.9 57.3 127.9 127.9 0 70.6-57.3 127.9-127.9 127.9-70.6 0-127.9-57.3-127.9-127.9z m323.1 543.3h-393c-17.8 0-31.3-22.2-28.4-46.5l10.1-84.3C314.4 555 405.3 448.3 511.7 448.3S709 555 726.5 700.6l10.1 84.3c2.9 24.3-10.6 46.5-28.4 46.5z" p-id="968"></path></svg>