<?xml version="1.0" standalone="no"?><!DOCTYPE svg PUBLIC "-//W3C//DTD SVG 1.1//EN" "http://www.w3.org/Graphics/SVG/1.1/DTD/svg11.dtd"><svg t="1602150443754" class="icon" viewBox="0 0 1024 1024" version="1.1" xmlns="http://www.w3.org/2000/svg" p-id="3019" xmlns:xlink="http://www.w3.org/1999/xlink" width="32" height="32"><defs><style type="text/css"></style></defs><path d="M816.7 401.7H206.5c-5.9 0-10.8 4.3-10.8 9.6v446.2c0 21.3 19.3 38.6 43.1 38.6h113.4c11.9 0 21.5-8.6 21.5-19.3V668.3c0-10.7 9.6-19.3 21.5-19.3h232.2c11.9 0 21.5 8.6 21.5 19.3v208.6c0 10.7 9.6 19.3 21.5 19.3h113.9c23.8 0 43.1-17.3 43.1-38.6V411.4c0.1-5.3-4.7-9.7-10.7-9.7zM206.5 390.6h610.2c10.9 0 14.9-12.8 5.6-17.9L512.7 204.9 201 372.7c-9.4 5.1-5.4 17.9 5.5 17.9z" p-id="3020" fill="#d81e06"></path><path d="M879.3 316.9L529.9 132.3c-5.4-2.9-11.4-4.2-17.3-4.3-6.2-0.1-12.5 1.2-18.2 4.3L144.9 316.9c-16.3 8.6-21.8 27.5-12.1 42.1 9.6 14.6 30.7 19.5 47 10.9l332.3-175.6 332.3 175.6c16.3 8.6 37.4 3.8 47-10.9 9.6-14.6 4.2-33.5-12.1-42.1z" p-id="3021" fill="#d81e06"></path></svg>